<svg xmlns="http://www.w3.org/2000/svg" viewBox="0 0 1600 1000" preserveAspectRatio="xMidYMid slice" role="img" aria-label="Open Zone">
  <rect width="1600" height="1000" fill="#0A0A0A"/>
  <g stroke="#EDE9DF" opacity="0.06" stroke-width="1">
    <path d="M0 250 H1600 M0 500 H1600 M0 750 H1600 M400 0 V1000 M800 0 V1000 M1200 0 V1000"/>
  </g>
  <g transform="translate(800 500)" fill="none" stroke="#EDE9DF" stroke-width="2" opacity="0.55">
    <rect x="-260" y="-160" width="520" height="320" />
    <rect x="-220" y="-120" width="440" height="240" opacity="0.4"/>
  </g>
  <g transform="translate(560 380)" fill="none" stroke="#EDE9DF" stroke-width="2" opacity="0.85">
    <polygon points="0,-60 52,-30 52,30 0,60 -52,30 -52,-30"/>
    <line x1="0" y1="-60" x2="0" y2="60"/>
    <line x1="-52" y1="-30" x2="52" y2="30"/>
    <line x1="-52" y1="30" x2="52" y2="-30"/>
  </g>
  <g transform="translate(1080 600)" fill="#6D4FFF" opacity="0.92">
    <circle r="56"/>
  </g>
  <g stroke="#EDE9DF" stroke-width="1.5" opacity="0.5" fill="none">
    <path d="M260 200 l-30 -30 M260 200 l30 -30 M260 200 l-30 30 M260 200 l30 30"/>
    <path d="M1340 800 l-30 -30 M1340 800 l30 -30 M1340 800 l-30 30 M1340 800 l30 30"/>
  </g>
</svg>
