<svg xmlns="http://www.w3.org/2000/svg" viewBox="0 0 64 16" shape-rendering="crispEdges"><rect fill="#F4F1EC" x="5" y="2" width="6" height="1"/><rect fill="#F4F1EC" x="4" y="3" width="8" height="1"/><rect fill="#F4F1EC" x="3" y="4" width="10" height="1"/><rect fill="#F4F1EC" x="3" y="5" width="2" height="1"/><rect fill="#B43329" x="5" y="5" width="2" height="1"/><rect fill="#B43329" x="9" y="5" width="2" height="1"/><rect fill="#F4F1EC" x="11" y="5" width="2" height="1"/><rect fill="#F4F1EC" x="3" y="6" width="2" height="1"/><rect fill="#B43329" x="5" y="6" width="2" height="1"/><rect fill="#B43329" x="9" y="6" width="2" height="1"/><rect fill="#F4F1EC" x="11" y="6" width="2" height="1"/><rect fill="#F4F1EC" x="3" y="7" width="10" height="1"/><rect fill="#F4F1EC" x="3" y="8" width="10" height="1"/><rect fill="#F4F1EC" x="4" y="9" width="8" height="1"/><rect fill="#F4F1EC" x="4" y="10" width="8" height="1"/><rect fill="#F4F1EC" x="5" y="11" width="6" height="1"/><rect fill="#F4F1EC" x="4" y="12" width="2" height="1"/><rect fill="#F4F1EC" x="10" y="12" width="2" height="1"/><rect fill="#F4F1EC" x="4" y="13" width="2" height="1"/><rect fill="#F4F1EC" x="10" y="13" width="2" height="1"/><rect fill="#F4F1EC" x="21" y="1" width="6" height="1"/><rect fill="#F4F1EC" x="20" y="2" width="8" height="1"/><rect fill="#F4F1EC" x="19" y="3" width="10" height="1"/><rect fill="#F4F1EC" x="19" y="4" width="2" height="1"/><rect fill="#B43329" x="21" y="4" width="2" height="1"/><rect fill="#B43329" x="25" y="4" width="2" height="1"/><rect fill="#F4F1EC" x="27" y="4" width="2" height="1"/><rect fill="#F4F1EC" x="19" y="5" width="2" height="1"/><rect fill="#B43329" x="21" y="5" width="2" height="1"/><rect fill="#B43329" x="25" y="5" width="2" height="1"/><rect fill="#F4F1EC" x="27" y="5" width="2" height="1"/><rect fill="#F4F1EC" x="19" y="6" width="10" height="1"/><rect fill="#F4F1EC" x="19" y="7" width="10" height="1"/><rect fill="#F4F1EC" x="20" y="8" width="8" height="1"/><rect fill="#F4F1EC" x="20" y="9" width="8" height="1"/><rect fill="#F4F1EC" x="20" y="10" width="8" height="1"/><rect fill="#F4F1EC" x="21" y="11" width="6" height="1"/><rect fill="#F4F1EC" x="20" y="12" width="2" height="1"/><rect fill="#F4F1EC" x="26" y="12" width="2" height="1"/><rect fill="#F4F1EC" x="20" y="13" width="2" height="1"/><rect fill="#F4F1EC" x="26" y="13" width="2" height="1"/><rect fill="#F4F1EC" x="37" y="2" width="6" height="1"/><rect fill="#F4F1EC" x="36" y="3" width="8" height="1"/><rect fill="#F4F1EC" x="35" y="4" width="10" height="1"/><rect fill="#F4F1EC" x="35" y="5" width="2" height="1"/><rect fill="#B43329" x="37" y="5" width="2" height="1"/><rect fill="#B43329" x="41" y="5" width="2" height="1"/><rect fill="#F4F1EC" x="43" y="5" width="2" height="1"/><rect fill="#F4F1EC" x="35" y="6" width="2" height="1"/><rect fill="#B43329" x="37" y="6" width="2" height="1"/><rect fill="#B43329" x="41" y="6" width="2" height="1"/><rect fill="#F4F1EC" x="43" y="6" width="2" height="1"/><rect fill="#F4F1EC" x="35" y="7" width="10" height="1"/><rect fill="#F4F1EC" x="35" y="8" width="10" height="1"/><rect fill="#F4F1EC" x="36" y="9" width="8" height="1"/><rect fill="#F4F1EC" x="36" y="10" width="8" height="1"/><rect fill="#F4F1EC" x="37" y="11" width="6" height="1"/><rect fill="#F4F1EC" x="36" y="12" width="2" height="1"/><rect fill="#F4F1EC" x="42" y="12" width="2" height="1"/><rect fill="#F4F1EC" x="37" y="13" width="1" height="1"/><rect fill="#F4F1EC" x="42" y="13" width="2" height="1"/><rect fill="#F4F1EC" x="53" y="2" width="6" height="1"/><rect fill="#F4F1EC" x="52" y="3" width="8" height="1"/><rect fill="#F4F1EC" x="51" y="4" width="10" height="1"/><rect fill="#F4F1EC" x="51" y="5" width="2" height="1"/><rect fill="#B43329" x="53" y="5" width="2" height="1"/><rect fill="#B43329" x="57" y="5" width="2" height="1"/><rect fill="#F4F1EC" x="59" y="5" width="2" height="1"/><rect fill="#F4F1EC" x="51" y="6" width="2" height="1"/><rect fill="#B43329" x="53" y="6" width="2" height="1"/><rect fill="#B43329" x="57" y="6" width="2" height="1"/><rect fill="#F4F1EC" x="59" y="6" width="2" height="1"/><rect fill="#F4F1EC" x="51" y="7" width="10" height="1"/><rect fill="#F4F1EC" x="51" y="8" width="10" height="1"/><rect fill="#F4F1EC" x="52" y="9" width="8" height="1"/><rect fill="#F4F1EC" x="52" y="10" width="8" height="1"/><rect fill="#F4F1EC" x="53" y="11" width="6" height="1"/><rect fill="#F4F1EC" x="52" y="12" width="2" height="1"/><rect fill="#F4F1EC" x="58" y="12" width="2" height="1"/><rect fill="#F4F1EC" x="52" y="13" width="2" height="1"/><rect fill="#F4F1EC" x="58" y="13" width="1" height="1"/></svg>